# xmcd
#
# Track frame offsets: 
#        150
#        24178
#        46473
#        71511
#        95659
#        121646
#        144472
#        164885
#        186038
#        206521
#        223149
#        243956
#        262852
#        285180
#
# Disc length: 4018 seconds
#
# Revision: 1
# Processed by: cddbd v1.5.2PL0 Copyright (c) Steve Scherf et al.
# Submitted via: ExactAudioCopy v0.99pb4
#
DISCID=c40fb00e
DTITLE=Jamhunters - Jamhunters
DYEAR=2006
DGENRE=Gateway Music
TTITLE0=Close Your Eyes
TTITLE1=ICE-J.AM
TTITLE2=The Music's Gonna Get You
TTITLE3=Secret Water
TTITLE4=Goodbye
TTITLE5=Tah
TTITLE6=This Is A Jam
TTITLE7=Round About
TTITLE8=The Gate
TTITLE9=So Wonderful
TTITLE10=Relax
TTITLE11=Jamride
TTITLE12=The Original Breathe
TTITLE13=Close Your Eyes
EXTD=YEAR: 2006
EXTT0=
EXTT1=
EXTT2=
EXTT3=
EXTT4=
EXTT5=
EXTT6=
EXTT7=
EXTT8=
EXTT9=
EXTT10=
EXTT11=
EXTT12=
EXTT13=
PLAYORDER=
